# xmcd CD database file
#
# Track frame offsets:
#	182
#	14107
#	27170
#	39815
#	58880
#	74047
#	89470
#	104552
#	119002
#	133207
#	147635
#	176420
#
# Disc length: 2600 seconds
#
# Revision: 0
# Processed by: cddbd v1.5.2PL0 Copyright (c) Steve Scherf et al.
# Submitted via: CDex 1.70beta2
#
DISCID=bd0a260c
DTITLE=The Flying Burrito Brothers - Southern Tracks
DYEAR=1990
DGENRE=Country
TTITLE0=Crazy Horses
TTITLE1=Born for Honky Tonkin'
TTITLE2=Armed and Dangerous
TTITLE3=Shelly's Little Girl
TTITLE4=Thunder Road
TTITLE5=Matchbox
TTITLE6=She's your Lover now
TTITLE7=Love minus Zero
TTITLE8=They want to hang a bad Boy
TTITLE9=My believing Heart
TTITLE10=Christine's Tune
TTITLE11=My Bucket's got a Hole in it
EXTD=YEAR: 1990
EXTT0=
EXTT1=
EXTT2=
EXTT3=
EXTT4=
EXTT5=
EXTT6=
EXTT7=
EXTT8=
EXTT9=
EXTT10=
EXTT11=
PLAYORDER=
